<?xml version="1.0" encoding="UTF-8"?> <svg xmlns="http://www.w3.org/2000/svg" xmlns:xlink="http://www.w3.org/1999/xlink" width="1440" height="1171" viewBox="0 0 1440 1171"><defs><linearGradient id="b" x1="148.965%" x2="0%" y1="8.549%" y2="83.008%"><stop offset="0%" stop-color="#FF1E5D"></stop><stop offset="100%" stop-color="#4299FF"></stop></linearGradient><path id="a" d="M.893.893h1440v1170H.893z"></path><linearGradient id="c" x1="50%" x2="50%" y1="0%" y2="100%"><stop offset="0%" stop-color="#123075"></stop><stop offset="100%" stop-color="#092056"></stop></linearGradient></defs><g fill="none" fill-rule="evenodd" transform="translate(-1)"><mask id="d" fill="#fff"><use xlink:href="#a"></use></mask><use fill="url(#b)" xlink:href="#a"></use><rect width="1000" height="1000" x="941.107" y="723.107" fill="url(#c)" mask="url(#d)" opacity=".5" rx="100" style="mix-blend-mode:soft-light" transform="rotate(45 1441.107 1223.107)"></rect><rect width="1000" height="1000" x="928.107" y="25.107" fill="url(#c)" mask="url(#d)" opacity=".6" rx="100" style="mix-blend-mode:soft-light" transform="rotate(45 1428.107 525.107)"></rect><path fill="#D2DBF7" fill-rule="nonzero" d="M-187.427 348h172.979v44.36H-77.93v190.878h-46.351V392.359h-63.146V348zM6.856 490.439v28.9c8.061-21.507 28.214-32.26 51.054-32.26v48.391c-13.1-1.68-25.191 1.008-35.603 8.065-10.413 7.057-15.451 18.483-15.451 34.614v80.317h-43.329V490.439H6.856zm203.88 19.827v-19.827h43.328v168.027h-43.329v-19.827c-13.099 16.466-31.236 24.531-54.748 24.531-22.504 0-41.65-8.4-57.771-25.54-15.787-17.138-23.848-38.31-23.848-63.178 0-24.868 8.061-45.703 23.848-62.842 16.122-17.139 35.267-25.876 57.771-25.876 23.512 0 41.65 8.065 54.748 24.532zm-79.94 98.464c8.733 8.737 19.817 13.106 33.252 13.106 13.435 0 24.52-4.369 33.252-13.106 9.069-9.074 13.435-20.5 13.435-34.278 0-13.778-4.366-25.204-13.435-33.941-8.733-9.074-19.817-13.442-33.252-13.442-13.435 0-24.52 4.368-33.252 13.442-8.733 8.737-13.1 20.163-13.1 33.941 0 13.778 4.367 25.204 13.1 34.278zm232.093-.672l40.978-117.62h47.695l-63.817 168.028H338.37l-63.817-168.027h47.695l40.641 117.619zm272.735-15.795H508.997c5.71 21.171 21.497 31.59 47.36 31.59 16.458 0 29.221-5.714 37.618-16.804l34.932 20.164c-16.458 23.86-40.978 35.957-73.222 35.957-27.878 0-50.046-8.4-66.84-25.204-16.794-16.802-25.191-37.974-25.191-63.514 0-25.204 8.397-46.375 24.855-63.178 16.458-17.139 37.954-25.54 63.817-25.54 24.52 0 45.008 8.401 60.794 25.54 16.123 17.139 24.184 37.974 24.184 63.178 0 5.713-.672 11.426-1.68 17.811zm-127.298-33.605h85.65c-5.04-22.852-21.833-33.942-41.65-33.942-23.176 0-38.962 12.434-44 33.942zM704 593.319h-43.329V348H704v245.32zm-843.396 123.62h117.894v18.147c0 33.605-10.748 60.826-32.244 81.661C-75.243 837.582-103.121 848-137.045 848c-36.275 0-66.504-11.762-90.352-35.286-23.847-23.86-35.603-52.76-35.603-86.702 0-34.277 11.756-63.178 35.267-87.037 23.848-23.86 53.07-35.622 88.001-35.622 44 0 82.29 21.507 102.444 54.777l-39.634 22.851c-11.084-19.155-35.268-32.597-63.146-32.597-22.504 0-40.977 7.393-55.42 22.18-14.443 14.45-21.496 32.933-21.496 55.448 0 22.18 7.389 40.663 21.832 55.113 14.779 14.45 34.26 21.508 58.443 21.508 35.94 0 60.123-16.803 68.52-44.695h-71.207v-40.999zm259.636 49.064v-90.735h43.328v168.027H120.24v-18.819C109.827 840.271 93.033 848 70.193 848c-18.473 0-33.588-6.049-45.68-18.483-11.755-12.434-17.8-29.237-17.8-51.08V675.268H50.04v97.792c0 22.516 13.099 34.614 33.252 34.614 22.504 0 36.947-13.779 36.947-41.671zm210.597-70.907v-19.828h43.328v168.027h-43.328v-19.827C317.737 839.935 299.6 848 276.088 848c-22.504 0-41.649-8.401-57.771-25.54-15.787-17.139-23.848-38.31-23.848-63.178 0-24.868 8.061-45.704 23.848-62.842 16.122-17.139 35.267-25.876 57.771-25.876 23.512 0 41.65 8.065 54.749 24.532zm-79.94 98.463c8.733 8.738 19.817 13.106 33.252 13.106 13.436 0 24.52-4.368 33.253-13.106 9.068-9.073 13.435-20.499 13.435-34.277 0-13.778-4.367-25.204-13.435-33.942-8.733-9.073-19.817-13.442-33.253-13.442-13.435 0-24.519 4.369-33.252 13.442-8.733 8.738-13.1 20.164-13.1 33.942 0 13.778 4.367 25.204 13.1 34.277zm205.895-118.29v28.9c8.061-21.507 28.214-32.261 51.054-32.261V720.3c-13.1-1.68-25.191 1.008-35.604 8.065-10.412 7.057-15.45 18.483-15.45 34.613v80.317h-43.329V675.268h43.329zm203.544 19.827v-87.038h43.328v235.237h-43.328v-19.827C647.572 839.935 629.435 848 605.923 848c-22.504 0-41.985-8.401-58.107-25.54-15.787-17.139-23.848-38.31-23.848-63.178 0-24.868 8.061-45.704 23.848-62.842 16.122-17.139 35.603-25.876 58.107-25.876 23.512 0 41.65 8.065 54.413 24.532zm-79.94 98.463c9.069 8.738 20.153 13.106 33.588 13.106 13.435 0 24.52-4.368 33.252-13.106 8.733-9.073 13.1-20.499 13.1-34.277 0-13.778-4.367-25.204-13.1-33.942-8.733-9.073-19.817-13.442-33.252-13.442-13.435 0-24.52 4.369-33.588 13.442-8.733 8.738-13.1 20.164-13.1 33.942 0 13.778 4.367 25.204 13.1 34.277z" mask="url(#d)" opacity=".1" transform="rotate(90 220.5 598)"></path></g></svg> 