<?xml version="1.0" encoding="UTF-8"?> <!-- Generator: Adobe Illustrator 23.0.2, SVG Export Plug-In . SVG Version: 6.00 Build 0) --> <svg xmlns="http://www.w3.org/2000/svg" xmlns:xlink="http://www.w3.org/1999/xlink" id="Layer_1" x="0px" y="0px" viewBox="0 0 80 108" xml:space="preserve"> <g opacity="0.1"> <circle fill="#4299FF" cx="54" cy="54" r="54"></circle> </g> <g opacity="0.2"> <circle fill="#4299FF" cx="54" cy="54" r="43.5"></circle> </g> <linearGradient id="SVGID_1_" gradientUnits="userSpaceOnUse" x1="3.3788" y1="106.1101" x2="107.8156" y2="-1.3985"> <stop offset="0.1101" style="stop-color:#4299FF"></stop> <stop offset="0.1937" style="stop-color:#4B93F7"></stop> <stop offset="0.3329" style="stop-color:#6582E1"></stop> <stop offset="0.5105" style="stop-color:#8E67BE"></stop> <stop offset="0.7171" style="stop-color:#C7428D"></stop> <stop offset="0.8983" style="stop-color:#FF1E5D"></stop> </linearGradient> <circle fill="url(#SVGID_1_)" cx="54" cy="54" r="39"></circle> <path fill="#FFFFFF" d="M59,51.96c-1.23,2.35-2.8,4.49-4.68,6.36c-1.87,1.88-4.01,3.45-6.36,4.68l-3.68-3.68 c-0.21-0.24-0.48-0.4-0.8-0.48c-0.31-0.08-0.63-0.05-0.92,0.08c-1.76,0.61-3.73,0.92-5.92,0.92c-0.45,0-0.84,0.16-1.16,0.48 S35,61.03,35,61.48v5.88c0,0.45,0.16,0.84,0.48,1.16C35.8,68.84,36.19,69,36.64,69c3.84,0,7.52-0.75,11.04-2.24 c3.37-1.43,6.42-3.49,9-6.08c2.59-2.58,4.65-5.63,6.08-9c1.49-3.52,2.24-7.2,2.24-11.04c0-0.45-0.16-0.84-0.48-1.16 c-0.3-0.31-0.72-0.49-1.16-0.48h-5.88c-0.45,0-0.84,0.16-1.16,0.48s-0.48,0.71-0.48,1.16c0,2.19-0.31,4.16-0.92,5.92 c-0.08,0.29-0.09,0.6-0.04,0.92c0.05,0.32,0.2,0.59,0.44,0.8L59,51.96z"></path> <g> </g> <g> </g> <g> </g> <g> </g> <g> </g> <g> </g> <g> </g> <g> </g> <g> </g> <g> </g> <g> </g> <g> </g> <g> </g> <g> </g> <g> </g> </svg> 