<?xml version="1.0" encoding="UTF-8"?> <!-- Generator: Adobe Illustrator 23.0.2, SVG Export Plug-In . SVG Version: 6.00 Build 0) --> <svg xmlns="http://www.w3.org/2000/svg" xmlns:xlink="http://www.w3.org/1999/xlink" id="Layer_1" x="0px" y="0px" viewBox="0 0 1440 1171" style="enable-background:new 0 0 1440 1171;" xml:space="preserve"> <style type="text/css"> .st0{fill:none;} .st1{fill-rule:evenodd;clip-rule:evenodd;fill:url(#SVGID_1_);} .st2{opacity:0.5;fill-rule:evenodd;clip-rule:evenodd;fill:url(#SVGID_2_);enable-background:new ;} .st3{opacity:0.6;fill-rule:evenodd;clip-rule:evenodd;fill:url(#SVGID_3_);enable-background:new ;} .st4{opacity:0.1;fill:#D2DBF7;enable-background:new ;} </style> <rect x="-1.11" class="st0" width="1440.21" height="1171"></rect> <g> <linearGradient id="SVGID_1_" gradientUnits="userSpaceOnUse" x1="162.3726" y1="-0.1178" x2="160.838" y2="0.6492" gradientTransform="matrix(1440 0 0 1170 -231680.1094 148.875)"> <stop offset="0" style="stop-color:#FF1E5D"></stop> <stop offset="1" style="stop-color:#4299FF"></stop> </linearGradient> <path class="st1" d="M-25.8-14.93h1483.32V1190.8H-25.8V-14.93z"></path> </g> <linearGradient id="SVGID_2_" gradientUnits="userSpaceOnUse" x1="161.2822" y1="8.581179e-03" x2="161.2822" y2="1.0086" gradientTransform="matrix(707.1068 707.1068 -707.1068 707.1068 -112244.0156 -113180.2578)"> <stop offset="0" style="stop-color:#123075"></stop> <stop offset="1" style="stop-color:#092056"></stop> </linearGradient> <path class="st2" d="M1510.82,586.71l565.69,565.69c39.05,39.05,39.05,102.37,0,141.42l-565.69,565.69 c-39.05,39.05-102.37,39.05-141.42,0l-565.69-565.69c-39.05-39.05-39.05-102.37,0-141.42l565.69-565.69 C1408.45,547.66,1471.77,547.66,1510.82,586.71z"></path> <linearGradient id="SVGID_3_" gradientUnits="userSpaceOnUse" x1="161.2822" y1="8.581206e-03" x2="161.2822" y2="1.0086" gradientTransform="matrix(707.1068 707.1068 -707.1068 707.1068 -112257.0156 -113878.2578)"> <stop offset="0" style="stop-color:#123075"></stop> <stop offset="1" style="stop-color:#092056"></stop> </linearGradient> <path class="st3" d="M1497.82-111.29L2063.5,454.4c39.05,39.05,39.05,102.37,0,141.42l-565.69,565.69 c-39.05,39.05-102.37,39.05-141.42,0L790.71,595.82c-39.05-39.05-39.05-102.37,0-141.42l565.69-565.69 C1395.45-150.34,1458.77-150.34,1497.82-111.29z"></path> <path class="st4" d="M469.5,190.07v172.98h-44.36v-63.48H234.26v-46.35h190.88v-63.15L469.5,190.07L469.5,190.07z M327.06,384.36 h-28.9c21.51,8.06,32.26,28.21,32.26,51.05h-48.39c1.68-13.1-1.01-25.19-8.07-35.6s-18.48-15.45-34.61-15.45h-80.32v-43.33h168.03 L327.06,384.36L327.06,384.36z M307.23,588.24h19.83v43.33H159.03v-43.33h19.83c-16.47-13.1-24.53-31.24-24.53-54.75 c0-22.5,8.4-41.65,25.54-57.77c17.14-15.79,38.31-23.85,63.18-23.85s45.7,8.06,62.84,23.85c17.14,16.12,25.88,35.27,25.88,57.77 C331.77,557,323.7,575.14,307.23,588.24L307.23,588.24z M208.77,508.3c-8.74,8.73-13.11,19.82-13.11,33.25s4.37,24.52,13.11,33.25 c9.07,9.07,20.5,13.43,34.28,13.43c13.78,0,25.2-4.37,33.94-13.43c9.07-8.73,13.44-19.82,13.44-33.25s-4.37-24.52-13.44-33.25 c-8.74-8.73-20.16-13.1-33.94-13.1C229.27,495.2,217.84,499.56,208.77,508.3z M209.44,740.39l117.62,40.98v47.7l-168.03-63.82 v-49.38l168.03-63.82v47.7L209.44,740.39L209.44,740.39z M225.24,1013.12V886.5c-21.17,5.71-31.59,21.5-31.59,47.36 c0,16.46,5.71,29.22,16.8,37.62l-20.16,34.93c-23.86-16.46-35.96-40.98-35.96-73.22c0-27.88,8.4-50.05,25.2-66.84 s37.97-25.19,63.51-25.19c25.2,0,46.38,8.4,63.18,24.86c17.14,16.46,25.54,37.95,25.54,63.82c0,24.52-8.4,45.01-25.54,60.79 c-17.14,16.12-37.97,24.18-63.18,24.18C237.33,1014.8,231.62,1014.13,225.24,1013.12L225.24,1013.12z M258.84,885.83v85.65 c22.85-5.04,33.94-21.83,33.94-41.65C292.78,906.65,280.35,890.86,258.84,885.83L258.84,885.83z M224.18,1081.5v-43.33H469.5v43.33 H224.18L224.18,1081.5z M100.56,238.1V356H82.41c-33.6,0-60.83-10.75-81.66-32.24c-20.84-21.5-31.25-49.38-31.25-83.3 c0-36.28,11.76-66.5,35.29-90.35c23.86-23.85,52.76-35.6,86.7-35.6c34.28,0,63.18,11.76,87.04,35.27 c23.86,23.85,35.62,53.07,35.62,88c0,44-21.51,82.29-54.78,102.44l-22.85-39.63c19.16-11.08,32.6-35.27,32.6-63.15 c0-22.5-7.39-40.98-22.18-55.42c-14.45-14.44-32.93-21.5-55.45-21.5c-22.18,0-40.66,7.39-55.11,21.83 c-14.45,14.78-21.51,34.26-21.51,58.44c0,35.94,16.8,60.12,44.7,68.52V238.1H100.56L100.56,238.1z M51.5,497.74h90.73v43.33H-25.79 v-43.33h18.82c-15.8-10.41-23.52-27.21-23.52-50.05c0-18.47,6.05-33.59,18.48-45.68c12.43-11.76,29.24-17.8,51.08-17.8h103.17v43.33 h-97.8c-22.52,0-34.61,13.1-34.61,33.25C9.83,483.3,23.6,497.74,51.5,497.74L51.5,497.74z M122.4,708.34h19.83v43.33H-25.79v-43.33 h19.83c-16.47-13.1-24.53-31.24-24.53-54.75c0-22.5,8.4-41.65,25.54-57.77c17.14-15.79,38.31-23.85,63.18-23.85 s45.7,8.06,62.84,23.85c17.14,16.12,25.88,35.27,25.88,57.77C146.94,677.1,138.87,695.24,122.4,708.34L122.4,708.34z M23.94,628.4 c-8.74,8.73-13.11,19.82-13.11,33.25c0,13.44,4.37,24.52,13.11,33.25c9.07,9.07,20.5,13.43,34.28,13.43s25.2-4.37,33.94-13.43 c9.07-8.73,13.44-19.82,13.44-33.25s-4.37-24.52-13.44-33.25c-8.74-8.73-20.16-13.1-33.94-13.1S33.01,619.66,23.94,628.4 L23.94,628.4z M142.23,834.29h-28.9c21.51,8.06,32.26,28.21,32.26,51.05H97.2c1.68-13.1-1.01-25.19-8.07-35.6 s-18.48-15.45-34.61-15.45H-25.8v-43.33h168.03V834.29L142.23,834.29z M122.4,1037.84h87.04v43.33H-25.8v-43.33h19.83 c-16.47-12.76-24.53-30.9-24.53-54.41c0-22.5,8.4-41.98,25.54-58.11c17.14-15.79,38.31-23.85,63.18-23.85s45.7,8.06,62.84,23.85 c17.14,16.12,25.88,35.6,25.88,58.11C146.94,1006.93,138.87,1025.07,122.4,1037.84z M23.94,957.9 c-8.74,9.07-13.11,20.15-13.11,33.59s4.37,24.52,13.11,33.25c9.07,8.73,20.5,13.1,34.28,13.1s25.2-4.37,33.94-13.1 c9.07-8.73,13.44-19.82,13.44-33.25s-4.37-24.52-13.44-33.59c-8.74-8.73-20.16-13.1-33.94-13.1S33.01,949.16,23.94,957.9z"></path> </svg> 