<svg xmlns="http://www.w3.org/2000/svg" xmlns:xlink="http://www.w3.org/1999/xlink" width="277" height="50" viewBox="0 0 277 50">
    <defs>
        <path id="a" d="M0 .268h45.896v49.157H0z"/>
    </defs>
    <g fill="none" fill-rule="evenodd">
        <g transform="translate(0 .306)">
            <mask id="b" fill="#fff">
                <use xlink:href="#a"/>
            </mask>
            <path fill="#FFF" d="M2.298 40.685V9.01c0-4.433 3.318-8.096 7.599-8.657A8.497 8.497 0 0 0 8.739.268c-4.819 0-8.74 3.921-8.74 8.74v31.677c0 4.82 3.921 8.74 8.74 8.74.387 0 .774-.03 1.158-.083-4.281-.561-7.6-4.225-7.6-8.657zm31.97-19.902c0-1.397-1.142-2.341-2.338-2.341h-.36v12.81h2.692l.006-10.469zm-3.66 6.6c-.021-.899-.271-2.4-2.148-2.985 1.702-.93 1.598-2.511 1.422-3.382-.22-1.09-1.377-2.544-3.99-2.529H21.02v12.765h4.962c3.207 0 4.665-1.862 4.626-3.87zm-10.255-8.911H17.68l-3.184 8.11-3.18-8.11H8.084l5.016 12.776h.804c.673 0 1.585-.363 2.01-1.466 1.098-2.833 4.438-11.31 4.438-11.31zm25.543 6.375c0 3.209-1.672 6.058-4.474 7.623L14.02 47.768s-1.066.528-2.638.6c-1.412-.056-3.121-.514-4.816-1.952a7.731 7.731 0 0 1-2.558-5.73V9.008c0-.043.004-.086.005-.128.003-.188.012-.373.028-.558a7.6 7.6 0 0 1 .087-.646c.023-.131.048-.261.077-.39.018-.076.039-.15.058-.225.113-.426.26-.837.44-1.232.056-.122.112-.244.174-.362.032-.062.066-.121.1-.181a7.54 7.54 0 0 1 6.304-3.84c1.16.072 2.567.382 4.066 1.22l26.075 14.557c2.802 1.564 4.474 4.413 4.474 7.623zm-19.52 1.01h-2.394v3.033h2.442c.762 0 1.503-.612 1.503-1.569 0-.55-.457-1.465-1.55-1.465zm-.465-2.362h-1.918v-2.649h1.918c.809 0 1.398.606 1.398 1.325 0 .81-.722 1.327-1.398 1.324z" mask="url(#b)"/>
        </g>
        <path fill="#FFF" d="M77.223 29.685c.245.345.472.703.72 1.073l6.647-8.796 1.182-1.576c.008-.01.012-.02.02-.03.297-.375.559-.778.873-1.136.227-.258.1-.37-.13-.516l-8.721 7.626c-.8-.53-1.575-1.017-2.532-1.07-.825-.047-2.174.59-2.376 1.12.616.09 1.174.336 1.694.664 1.074.679 1.893 1.618 2.623 2.641zm3.1-1.065l1.32 4.136h3.666l-2.518-7.404-2.468 3.268zm-5.127-3.973l.12.004c.676.038 1.26.253 1.825.555l1.046-3.278.815 2.553 2.692-2.354-1.37-4.032H76.05l-2.352 6.917c.519-.227 1.079-.365 1.497-.365zm-.922 2.912a3.796 3.796 0 0 0-1.263-.523l-1.945 5.72h3.666l1.191-3.733c-.539-.619-1.07-1.098-1.649-1.464zm3.934-12.941c.168 0 .314.104.314.21 0 .125-.083.167-.167.25.02-.02-.294.147-.294.147-.607.272-.921.523-.921 1.822h2.2c-.064-.502.125-.628.397-.754.503-.23.943-.753.943-1.592 0-1.13-.943-1.78-2.43-1.78-1.382 0-2.22.46-2.786 1.571l1.885.691c.21-.44.545-.565.859-.565zm198.01 18.138h-3.811l-4.692-6.786v6.786h-3.351V18.095h3.35v6.367l4.483-6.367h3.812l-4.943 7.142 5.152 7.52zm-17.72-14.661h3.351v14.661h-2.513l-5.656-7.959v7.96h-3.35V18.094h2.513l5.655 7.96v-7.96zm-18.266 9.215h3.435l-1.717-5.382-1.718 5.382zm5.174 5.446l-.733-2.304h-5.446l-.733 2.304h-3.666l4.986-14.661h4.272l4.985 14.661h-3.665zm-15.73-3.142c.837 0 1.381-.565 1.381-1.403 0-.837-.544-1.403-1.382-1.403h-2.807v2.806h2.807zm-2.808-8.378v2.597h2.388c.754 0 1.278-.544 1.278-1.298s-.524-1.299-1.278-1.299h-2.388zm7.54 7.227c0 1.277-.46 2.303-1.36 3.1-.901.795-2.032 1.193-3.373 1.193h-6.158V18.095h5.74c1.319 0 2.408.398 3.288 1.173.9.775 1.34 1.78 1.34 3.016 0 1.173-.419 2.136-1.278 2.869 1.194.775 1.802 1.864 1.802 3.31zm-16.757-10.368h3.351v14.661h-2.513l-5.655-7.959v7.96h-3.351V18.094h2.513l5.655 7.96v-7.96zm-14.034 14.661h3.352V18.095h-3.352v14.661zm-1.466-14.661v3.225h-3.77v11.436h-3.352V21.32h-3.77v-3.225h10.892zM184.556 29.53h5.864v3.225h-9.216V18.095h9.112v3.225h-5.76v2.43h5.236v3.183h-5.236v2.598zm-9.217 3.225h3.352V18.095h-3.352v14.661zm-10.305 0l-4.776-14.661h3.665l3.247 10.787 3.246-10.787h3.666l-4.776 14.661h-4.272zm-11.27-14.661v14.661h-3.352v-8.524l-3.792 6.22h-.376l-3.791-6.22v8.524H139.1V18.095h3.352l3.98 6.514 3.98-6.514h3.35zm-18.853-3.163c0-1.215.294-1.446.86-1.697 0 0 .292-.167.271-.146.063-.084.147-.105.147-.23 0-.105-.126-.189-.294-.189-.292 0-.606.105-.795.524l-1.76-.65c.544-1.026 1.32-1.466 2.597-1.466 1.383 0 2.262.608 2.262 1.655 0 .796-.418 1.277-.88 1.487-.25.125-.418.23-.376.712h-2.032zm-2.45 1.026l-.691 1.09h-2.828l2.074-2.933h2.868l2.075 2.932h-2.828l-.67-1.089zm-1.11 13.573h5.865v3.225h-9.217V18.095h9.111v3.225h-5.76v2.43h5.237v3.183h-5.236v2.598zm-9.217 3.225h3.352V18.095h-3.352v14.661zm-5.866-14.661h3.352v14.661h-3.352v-5.823h-4.608v5.823h-3.35V18.095h3.35v5.613h4.608v-5.613zM93.562 29.782c1.215 0 2.22-.398 3.037-1.215.817-.816 1.236-1.863 1.236-3.142 0-1.277-.419-2.324-1.236-3.141-.817-.817-1.822-1.215-3.037-1.215-1.215 0-2.24.398-3.058 1.215-.817.817-1.214 1.864-1.214 3.141 0 1.279.397 2.326 1.214 3.142.817.817 1.843 1.215 3.058 1.215zm0 3.267c-2.115 0-3.917-.732-5.404-2.199-1.487-1.466-2.22-3.267-2.22-5.425 0-2.157.733-3.958 2.22-5.424 1.487-1.466 3.289-2.2 5.404-2.2 2.116 0 3.917.734 5.404 2.2 1.487 1.466 2.22 3.267 2.22 5.424 0 2.158-.733 3.959-2.22 5.425-1.487 1.467-3.288 2.2-5.404 2.2zm-27.65-3.435c.838 0 1.383-.565 1.383-1.403 0-.837-.545-1.403-1.382-1.403h-2.807v2.806h2.807zm-2.806-8.378v2.597h2.387c.755 0 1.278-.544 1.278-1.298s-.523-1.299-1.278-1.299h-2.387zm7.54 7.227c0 1.277-.46 2.303-1.362 3.1-.9.795-2.031 1.193-3.371 1.193h-6.158V18.095h5.738c1.32 0 2.41.398 3.29 1.173.9.775 1.34 1.78 1.34 3.016 0 1.173-.42 2.136-1.278 2.869 1.194.775 1.802 1.864 1.802 3.31z"/>
    </g>
</svg>
