<?xml version="1.0" encoding="UTF-8"?> <svg xmlns="http://www.w3.org/2000/svg" xmlns:xlink="http://www.w3.org/1999/xlink" width="56" height="60" viewBox="0 0 56 60"><defs><path id="a" d="M0 .322h55.075V59.31H0z"></path></defs><g fill="none" fill-rule="evenodd"><mask id="b" fill="#fff"><use xlink:href="#a"></use></mask><path fill="#FFF" d="M2.758 48.822V10.81c0-5.318 3.98-9.714 9.118-10.388-.461-.063-.925-.1-1.39-.1C4.704.322 0 5.027 0 10.81v38.012C0 54.605 4.704 59.31 10.486 59.31c.465 0 .93-.036 1.39-.1-5.137-.673-9.118-5.07-9.118-10.388zM41.122 24.94c0-1.676-1.37-2.81-2.806-2.81h-.43v15.372h3.229l.007-12.562zm-4.392 7.92c-.026-1.08-.326-2.881-2.578-3.583 2.042-1.116 1.918-3.013 1.707-4.058-.264-1.307-1.653-3.053-4.788-3.034h-5.847v15.317h5.954c3.85 0 5.598-2.234 5.552-4.643zM24.423 22.165h-3.206l-3.82 9.731-3.817-9.73H9.702l6.019 15.33h.965c.807 0 1.902-.435 2.412-1.759 1.318-3.399 5.325-13.572 5.325-13.572zm30.652 7.65c0 3.851-2.006 7.27-5.369 9.148L16.824 57.322s-1.279.633-3.166.72c-1.694-.067-3.745-.617-5.78-2.343-1.889-1.713-3.068-4.175-3.068-6.877V10.81c0-.051.005-.102.005-.153a9.32 9.32 0 0 1 .034-.67 9.12 9.12 0 0 1 .05-.412 8.982 8.982 0 0 1 .147-.83c.022-.092.047-.18.07-.27a9.23 9.23 0 0 1 .528-1.48c.067-.145.134-.292.209-.434.038-.073.079-.145.119-.217a9.048 9.048 0 0 1 7.566-4.607c1.391.086 3.08.458 4.878 1.462l31.29 17.47c3.363 1.877 5.37 5.296 5.37 9.147zm-23.424 1.212h-2.873v3.64h2.93c.916 0 1.804-.734 1.804-1.882 0-.66-.548-1.758-1.86-1.758zm-.558-2.834h-2.302v-3.179h2.302c.97 0 1.678.727 1.678 1.59 0 .972-.867 1.593-1.678 1.589z" mask="url(#b)"></path></g></svg> 